<svg width="24" height="24" viewBox="0 0 24 24" fill="none" xmlns="http://www.w3.org/2000/svg">
<path d="M16 6.00061V5.20061C16 4.08051 16 3.52045 15.782 3.09263C15.5903 2.71631 15.2843 2.41034 14.908 2.2186C14.4802 2.00061 13.9201 2.00061 12.8 2.00061H11.2C10.0799 2.00061 9.51984 2.00061 9.09202 2.2186C8.7157 2.41034 8.40973 2.71631 8.21799 3.09263C8 3.52045 8 4.08051 8 5.20061V6.00061M10 11.5006V16.5006M14 11.5006V16.5006M3 6.00061H21M19 6.00061V17.2006C19 18.8808 19 19.7208 18.673 20.3626C18.3854 20.9271 17.9265 21.386 17.362 21.6736C16.7202 22.0006 15.8802 22.0006 14.2 22.0006H9.8C8.11984 22.0006 7.27976 22.0006 6.63803 21.6736C6.07354 21.386 5.6146 20.9271 5.32698 20.3626C5 19.7208 5 18.8808 5 17.2006V6.00061" stroke="#DF0505" stroke-width="1.32" stroke-linecap="round" stroke-linejoin="round"/>
</svg>
