<svg width="40" height="40" viewBox="0 0 40 40" fill="none" xmlns="http://www.w3.org/2000/svg">
<rect width="40" height="40" rx="20" fill="#F3E8FF"/>
<path d="M22 10.2699V14.4005C22 14.9605 22 15.2405 22.109 15.4545C22.2049 15.6426 22.3578 15.7956 22.546 15.8915C22.7599 16.0005 23.0399 16.0005 23.6 16.0005H27.7305M24 21.0004H16M24 25.0004H16M18 17.0004H16M22 10.0004H16.8C15.1198 10.0004 14.2798 10.0004 13.638 10.3274C13.0735 10.615 12.6146 11.0739 12.327 11.6384C12 12.2802 12 13.1202 12 14.8004V25.2004C12 26.8806 12 27.7206 12.327 28.3624C12.6146 28.9269 13.0735 29.3858 13.638 29.6734C14.2798 30.0004 15.1198 30.0004 16.8 30.0004H23.2C24.8802 30.0004 25.7202 30.0004 26.362 29.6734C26.9265 29.3858 27.3854 28.9269 27.673 28.3624C28 27.7206 28 26.8806 28 25.2004V16.0004L22 10.0004Z" stroke="url(#paint0_linear_764_115)" stroke-width="1.2" stroke-linecap="round" stroke-linejoin="round"/>
<defs>
<linearGradient id="paint0_linear_764_115" x1="16.1481" y1="16.2125" x2="27.1207" y2="29.2296" gradientUnits="userSpaceOnUse">
<stop offset="0.105" stop-color="#571EB3"/>
<stop offset="0.325" stop-color="#4535C4"/>
<stop offset="0.565" stop-color="#3745D0"/>
<stop offset="0.795" stop-color="#265ADF"/>
<stop offset="1" stop-color="#156FEF"/>
</linearGradient>
</defs>
</svg>
